<svg xmlns="http://www.w3.org/2000/svg" viewBox="0 0 960 420" role="img" aria-labelledby="t d"><title id="t">Enterprise communications architecture</title><desc id="d">Users access Nextcloud collaboration and hMailServer email services through web and Thunderbird clients.</desc><rect width="960" height="420" rx="22" fill="#10161e"/><g stroke="#58a6ff" stroke-width="3" fill="none"><path d="M225 210H355M605 210H735"/><path d="M480 110V165M480 255V320"/></g><g font-family="Consolas,monospace" text-anchor="middle"><g fill="#17202b" stroke="#303d4d" stroke-width="2"><rect x="50" y="165" width="175" height="90" rx="14"/><rect x="355" y="150" width="250" height="120" rx="16"/><rect x="735" y="165" width="175" height="90" rx="14"/><rect x="360" y="35" width="240" height="75" rx="14"/><rect x="360" y="320" width="240" height="65" rx="14"/></g><circle cx="480" cy="210" r="38" fill="#132b20" stroke="#7ee787" stroke-width="3"/><g fill="#e6edf3" font-size="17"><text x="137" y="200">USERS</text><text x="137" y="225" fill="#8b949e">Browser · Desktop</text><text x="480" y="183">NEXTCLOUD</text><text x="480" y="246" fill="#7ee787">COLLABORATION</text><text x="822" y="200">THUNDERBIRD</text><text x="822" y="225" fill="#8b949e">Email client</text><text x="480" y="66">HMAILSERVER</text><text x="480" y="90" fill="#8b949e">SMTP · IMAP</text><text x="480" y="348">UBUNTU + WINDOWS</text><text x="480" y="371" fill="#8b949e">Hyper-V lab</text></g></g></svg>
