<svg xmlns="http://www.w3.org/2000/svg" viewBox="0 0 960 420" role="img" aria-labelledby="t d"><title id="t">Enterprise server lab architecture</title><desc id="d">Hyper-V lab connecting a domain controller, workstation, Ubuntu collaboration server, two cluster nodes and TrueNAS storage.</desc><rect width="960" height="420" rx="22" fill="#10161e"/><g fill="none" stroke="#303d4d" stroke-width="3"><path d="M480 105V185M140 315V245H820V315M270 245V315M480 245V315M690 245V315"/></g><g font-family="Consolas,monospace" text-anchor="middle"><g fill="#17202b" stroke="#58a6ff" stroke-width="2"><rect x="350" y="35" width="260" height="70" rx="12"/><rect x="45" y="315" width="190" height="70" rx="12"/><rect x="255" y="315" width="190" height="70" rx="12"/><rect x="465" y="315" width="190" height="70" rx="12"/><rect x="675" y="315" width="240" height="70" rx="12"/></g><rect x="350" y="185" width="260" height="60" rx="30" fill="#132b20" stroke="#7ee787" stroke-width="2"/><g fill="#e6edf3" font-size="17"><text x="480" y="65">HYPER-V LAB</text><text x="480" y="88" fill="#8b949e">Virtual network</text><text x="140" y="344">WINDOWS SERVER 2022</text><text x="140" y="367" fill="#8b949e">AD · DNS · DHCP</text><text x="350" y="344">UBUNTU SERVER</text><text x="350" y="367" fill="#8b949e">Nextcloud</text><text x="560" y="344">NODE 1 + NODE 2</text><text x="560" y="367" fill="#8b949e">Failover cluster</text><text x="795" y="344">TRUENAS</text><text x="795" y="367" fill="#8b949e">Shared storage</text><text x="480" y="222" fill="#7ee787">ENTERPRISE SERVICES</text></g></g></svg>
